# xmcd
#
# Track frame offsets:
#	150
#	1510
#	5953
#	39592
#	58264
#	78249
#	108488
#	135155
#	197191
#	233739
#	266698
#	301934
#
# Disc length: 4036 seconds
#
# Revision: 0
# Processed by: cddbd v1.5.2PL0 Copyright (c) Steve Scherf et al.
# Submitted via: audiograbber 1.83.01
#
DISCID=930fc20c
DTITLE=Neuseeland - Sagen and Legenden 1
DYEAR=1900
DGENRE=Hörbuch
TTITLE0=Einleitung
TTITLE1=Begrüßung
TTITLE2=Die Entstehungsgeschichte
TTITLE3=Tiki, der erste Mensch
TTITLE4=Die Geburt von Máui
TTITLE5=Máuis Fisch
TTITLE6=Die Schlacht der Fische
TTITLE7=Mataora und Niwareka
TTITLE8=Kupes Entdeckung von Aotearoa
TTITLE9=Der Riese und die Häuptlingstochter
TTITLE10=Hatupatu und die Vogelfrau
TTITLE11=Absage
EXTD=
EXTT0=
EXTT1=
EXTT2=
EXTT3=
EXTT4=
EXTT5=
EXTT6=
EXTT7=
EXTT8=
EXTT9=
EXTT10=
EXTT11=
PLAYORDER=
